<svg width="14" height="14" viewBox="0 0 14 14" fill="none" xmlns="http://www.w3.org/2000/svg">
<path d="M5.96883 6.2762C5.95063 5.91597 5.94558 5.5356 5.94763 5.17694C6.25925 5.35449 6.58614 5.54906 6.88901 5.74493C7.17272 5.92841 7.41925 6.10273 7.60687 6.25657C7.77987 6.39842 7.8481 6.47919 7.86324 6.49711C7.8644 6.49849 7.86525 6.49949 7.86581 6.50013C7.86608 6.50093 7.86653 6.50217 7.86714 6.50386C7.87509 6.52594 7.91093 6.62541 7.94727 6.84615C7.98669 7.08556 8.01438 7.38622 8.03143 7.72365C8.04962 8.08389 8.05468 8.46426 8.05263 8.82292C7.741 8.64536 7.41412 8.4508 7.11124 8.25492C6.82753 8.07145 6.581 7.89713 6.39338 7.74329C6.22038 7.60144 6.15215 7.52067 6.13701 7.50275C6.13585 7.50137 6.135 7.50037 6.13444 7.49973C6.13417 7.49893 6.13373 7.49769 6.13312 7.496C6.12516 7.47392 6.08933 7.37445 6.05298 7.15371C6.01357 6.9143 5.98587 6.61364 5.96883 6.2762Z" stroke="#FD4438" stroke-width="2"/>
<circle cx="7" cy="7" r="6" stroke="#FD4438" stroke-width="2"/>
</svg>
