<svg width="20" height="20" viewBox="0 0 20 20" fill="none" xmlns="http://www.w3.org/2000/svg">
<path d="M4.16675 10.633C4.16675 9.50155 4.16675 8.93582 4.39547 8.43854C4.62418 7.94126 5.05372 7.57308 5.91279 6.83673L6.74612 6.12245C8.29889 4.79151 9.07527 4.12604 10.0001 4.12604C10.9249 4.12604 11.7013 4.79151 13.254 6.12245L14.0874 6.83673C14.9464 7.57308 15.376 7.94126 15.6047 8.43854C15.8334 8.93582 15.8334 9.50155 15.8334 10.633V14.1667C15.8334 15.738 15.8334 16.5237 15.3453 17.0119C14.8571 17.5 14.0714 17.5 12.5001 17.5H7.50008C5.92873 17.5 5.14306 17.5 4.6549 17.0119C4.16675 16.5237 4.16675 15.738 4.16675 14.1667V10.633Z" stroke="white" stroke-width="2"/>
<path d="M12.0834 17.5V13.5C12.0834 12.9477 11.6357 12.5 11.0834 12.5H8.91675C8.36446 12.5 7.91675 12.9477 7.91675 13.5V17.5" stroke="white" stroke-width="2" stroke-linecap="round" stroke-linejoin="round"/>
</svg>
