<svg width="13" height="15" viewBox="0 0 13 15" fill="none" xmlns="http://www.w3.org/2000/svg">
<path fill-rule="evenodd" clip-rule="evenodd" d="M6.90861 13.7887C8.18295 13.088 12 10.658 12 6.6875C12 3.54638 9.53757 1 6.5 1C3.46243 1 1 3.54638 1 6.6875C1 10.658 4.81705 13.088 6.09139 13.7887C6.34874 13.9301 6.65126 13.9301 6.90861 13.7887ZM6.5 9C7.88071 9 9 7.88071 9 6.5C9 5.11929 7.88071 4 6.5 4C5.11929 4 4 5.11929 4 6.5C4 7.88071 5.11929 9 6.5 9Z" fill="#FD4438"/>
<path d="M6.90861 13.7887L7.19768 14.3144H7.19768L6.90861 13.7887ZM6.09139 13.7887L5.80232 14.3144L5.80232 14.3144L6.09139 13.7887ZM11.4 6.6875C11.4 8.46814 10.546 9.92888 9.49384 11.0546C8.44075 12.1813 7.22854 12.9281 6.61954 13.2629L7.19768 14.3144C7.86302 13.9486 9.19651 13.1301 10.3705 11.874C11.5455 10.6169 12.6 8.87738 12.6 6.6875H11.4ZM6.5 1.6C9.1874 1.6 11.4 3.85863 11.4 6.6875H12.6C12.6 3.23413 9.88774 0.4 6.5 0.4V1.6ZM1.6 6.6875C1.6 3.85863 3.8126 1.6 6.5 1.6V0.4C3.11226 0.4 0.4 3.23413 0.4 6.6875H1.6ZM6.38046 13.2629C5.77146 12.9281 4.55925 12.1813 3.50616 11.0546C2.454 9.92888 1.6 8.46814 1.6 6.6875H0.4C0.4 8.87738 1.45452 10.6169 2.62947 11.874C3.80349 13.1301 5.13698 13.9486 5.80232 14.3144L6.38046 13.2629ZM6.61954 13.2629C6.5422 13.3054 6.4578 13.3054 6.38046 13.2629L5.80232 14.3144C6.23968 14.5549 6.76032 14.5549 7.19768 14.3144L6.61954 13.2629ZM8.4 6.5C8.4 7.54934 7.54934 8.4 6.5 8.4V9.6C8.21208 9.6 9.6 8.21208 9.6 6.5H8.4ZM6.5 4.6C7.54934 4.6 8.4 5.45066 8.4 6.5H9.6C9.6 4.78792 8.21208 3.4 6.5 3.4V4.6ZM4.6 6.5C4.6 5.45066 5.45066 4.6 6.5 4.6V3.4C4.78792 3.4 3.4 4.78792 3.4 6.5H4.6ZM6.5 8.4C5.45066 8.4 4.6 7.54934 4.6 6.5H3.4C3.4 8.21208 4.78792 9.6 6.5 9.6V8.4Z" fill="#FD4438"/>
</svg>
